<svg width="24" height="24" viewBox="0 0 24 24" fill="none" xmlns="http://www.w3.org/2000/svg">
<rect width="24" height="24" rx="5" fill="#323232"/>
<g clip-path="url(#clip0_9_25)">
<path fill-rule="evenodd" clip-rule="evenodd" d="M11.9791 5C8.11986 5 5 8.20833 5 12.1775C5 15.3502 6.999 18.0359 9.77214 18.9864C10.1189 19.0579 10.2459 18.832 10.2459 18.642C10.2459 18.4756 10.2344 17.9052 10.2344 17.311C8.293 17.7388 7.88871 16.4554 7.88871 16.4554C7.57671 15.6235 7.11443 15.4097 7.11443 15.4097C6.479 14.97 7.16071 14.97 7.16071 14.97C7.86557 15.0176 8.23543 15.7068 8.23543 15.7068C8.85929 16.8 9.86457 16.4911 10.269 16.3009C10.3267 15.8375 10.5117 15.5166 10.7081 15.3384C9.15971 15.172 7.53057 14.5541 7.53057 11.7971C7.53057 11.0129 7.80771 10.3712 8.24686 9.87215C8.17757 9.69394 7.93486 8.95704 8.31629 7.97077C8.31629 7.97077 8.90557 7.7806 10.2343 8.70752C10.8032 8.55041 11.3898 8.47049 11.9791 8.46981C12.5684 8.46981 13.1691 8.55308 13.7239 8.70752C15.0527 7.7806 15.642 7.97077 15.642 7.97077C16.0234 8.95704 15.7806 9.69394 15.7113 9.87215C16.162 10.3712 16.4277 11.0129 16.4277 11.7971C16.4277 14.5541 14.7986 15.1601 13.2386 15.3384C13.4929 15.5642 13.7123 15.9919 13.7123 16.6693C13.7123 17.6318 13.7009 18.4043 13.7009 18.6418C13.7009 18.832 13.828 19.0579 14.1746 18.9866C16.9477 18.0358 18.9467 15.3502 18.9467 12.1775C18.9581 8.20833 15.8269 5 11.9791 5Z" fill="#F8F4EC"/>
</g>
<defs>
<clipPath id="clip0_9_25">
<rect width="14" height="14" fill="white" transform="translate(5 5)"/>
</clipPath>
</defs>
</svg>
